<svg width="162" height="37" viewBox="0 0 162 37" fill="none" xmlns="http://www.w3.org/2000/svg">
<path d="M109.622 4.1114C109.622 2.88972 109.622 1.22167 109.622 0C107.904 0 105.857 0 104.14 0C104.14 1.22167 104.14 2.88972 104.14 4.1114C104.824 4.1114 108.94 4.1114 109.622 4.1114Z" fill="white"/>
<path d="M82.2178 32.8887C82.2178 34.1077 82.2178 35.7784 82.2178 36.9975C85.8175 36.9975 89.5791 36.9975 93.1789 36.9975C93.1789 35.7784 93.1789 34.1077 93.1789 32.8887C92.4976 32.8887 84.8882 32.8887 82.2178 32.8887Z" fill="white"/>
<path d="M56.1812 32.8887C56.1812 34.1077 56.1812 35.7784 56.1812 36.9975C59.7809 36.9975 63.5425 36.9975 67.1423 36.9975C67.1423 35.7784 67.1423 34.1077 67.1423 32.8887C66.4609 32.8887 58.8516 32.8887 56.1812 32.8887Z" fill="white"/>
<path d="M47.9612 10.961C47.9612 9.73933 47.9612 8.07128 47.9612 6.84961C46.2435 6.84961 44.197 6.84961 42.4819 6.84961C42.4819 8.07128 42.4819 9.73933 42.4819 10.961C43.1633 10.961 47.2773 10.961 47.9612 10.961Z" fill="white"/>
<path d="M97.2926 18.5001C97.2952 17.7613 97.0472 17.0226 96.6061 16.4457C95.9744 15.5921 94.9406 15.07 93.8678 15.0752C93.8678 15.0752 85.8225 15.0752 82.2201 15.0752C82.2201 10.0893 82.2201 4.98857 82.2201 0.00268555C79.5523 0.00268555 76.6678 0.00268555 73.9973 0.00268555C73.9973 7.28312 73.9947 24.8094 73.9947 26.0389C72.7652 26.0389 68.2701 26.0389 67.8289 26.0389C65.9834 26.0494 64.391 24.5171 64.4041 22.6141C64.4015 22.5906 64.4041 15.4746 64.4041 12.3369C63.7201 12.3369 60.2927 12.3369 60.2927 12.3369V13.0234C60.2927 14.916 58.7604 16.4483 56.8678 16.4483H45.9067C44.8338 16.4457 43.8001 16.9625 43.1684 17.8161C42.7272 18.393 42.4792 19.1344 42.4818 19.8731V30.8342C42.4818 32.7268 40.9495 34.2591 39.057 34.2591H38.373V37C39.5947 37 47.2798 37 47.2798 37C48.3526 37.0053 49.3811 36.4832 50.0181 35.6322C50.4592 35.0553 50.7072 34.3139 50.7046 33.5752C50.7046 33.5752 50.7046 23.713 50.7046 19.1892C53.8397 19.1892 57.1602 19.1892 60.2953 19.1892C60.2953 20.9069 60.2953 25.355 60.2953 25.355C60.2927 26.4279 60.8121 27.4616 61.6657 28.0933C62.2426 28.5345 62.9788 28.7825 63.7201 28.7799H78.7953C79.6724 28.7772 80.4581 28.4588 81.0794 27.9054C81.7972 27.2684 82.2227 26.3261 82.2201 25.3524C82.2201 25.3524 82.2201 19.0378 82.2201 17.8161C84.4181 17.8161 91.9622 17.8161 93.1838 17.8161C93.1838 19.5338 93.1838 24.6685 93.1838 24.6685C93.1369 25.6317 93.2491 26.6367 93.8704 27.4068C94.5152 28.2604 95.4993 28.7746 96.6087 28.7772C97.1047 28.7772 118.531 28.7772 118.531 28.7772C119.27 28.7799 120.011 28.5319 120.585 28.0907C121.439 27.4564 121.961 26.4253 121.956 25.3524C121.956 25.3524 121.956 13.6682 121.956 8.22287C116.51 8.22287 104.826 8.22287 104.826 8.22287C104.088 8.22026 103.349 8.46825 102.772 8.90941C101.918 9.54113 101.396 10.5748 101.401 11.6477V19.8705C101.396 20.946 101.918 21.9719 102.769 22.6088C102.769 22.6088 102.769 22.6088 102.772 22.6088C103.349 23.05 104.088 23.298 104.826 23.2954C104.826 23.2954 109.773 23.2954 110.995 23.2954C110.995 22.6115 110.995 21.2358 110.995 20.5544C109.272 20.5544 107.233 20.5544 105.51 20.5544C105.51 17.4167 105.51 14.1015 105.51 10.9612C108.181 10.9612 111.063 10.9612 113.733 10.9612C113.733 10.9612 113.733 21.0635 113.733 26.0363C108.288 26.0363 102.735 26.0363 97.29 26.0363C97.2926 24.7729 97.2926 18.5001 97.2926 18.5001Z" fill="white"/>
<path d="M36.3109 19.1838C35.6765 18.3302 34.6454 17.8082 33.5725 17.8134C33.5725 17.8134 26.4278 17.8134 23.2927 17.8134C23.2927 15.1455 23.2927 12.261 23.2927 9.59058C27.8192 9.59058 32.4709 9.59058 36.9974 9.59058C36.9974 8.90665 36.9974 7.53358 36.9974 6.84965C31.0926 6.84965 18.4948 6.84965 18.4948 6.84965C17.4219 6.84443 16.3882 7.36651 15.7565 8.22011C15.3153 8.79701 15.0673 9.53576 15.0699 10.2745C15.0699 10.2745 15.0699 17.4166 15.0699 20.5517C19.5964 20.5517 24.2481 20.5517 28.7746 20.5517C28.7746 23.6868 28.7746 27.0072 28.7746 30.1423C24.0811 30.1423 11.6451 30.145 11.6451 30.145C9.75253 30.145 8.22022 28.6126 8.22022 26.7201C8.22022 26.7201 8.22022 17.7638 8.22022 13.6994C5.55238 13.6994 2.66788 13.6994 3.89848e-05 13.6994C3.89848e-05 18.6853 3.89848e-05 29.4584 3.89848e-05 29.4584C-0.00518184 30.5287 0.51429 31.565 1.36789 32.1967C1.9448 32.6379 2.68615 32.8911 3.4249 32.8859H33.5725C34.3139 32.8885 35.05 32.6379 35.6269 32.1967C35.7026 32.1419 35.7705 32.0845 35.841 32.0218C36.5693 31.3927 37.0026 30.4321 36.9974 29.4584V21.2356C37 20.4969 36.752 19.7607 36.3109 19.1838Z" fill="white"/>
<path d="M127.44 0V2.73832H129.495C131.387 2.73832 132.92 4.27324 132.92 6.16318V30.8316C132.92 32.7241 131.385 34.2564 129.495 34.2564H127.44V36.9947H147.995V34.2564H141.145V20.5518H152.106C152.106 20.5518 152.106 17.1269 152.106 16.443H141.145V2.73832C145.666 2.73832 155.531 2.73832 155.531 2.73832C157.424 2.73832 158.956 4.27324 158.956 6.16318C158.956 6.16318 158.956 8.90411 158.956 9.58804H161.697V0H127.44Z" fill="white"/>
<path d="M158.959 30.8316C158.959 32.7241 157.426 34.2565 155.534 34.2565H152.106C152.106 34.9404 152.106 36.3135 152.106 36.9974C154.304 36.9974 161.7 36.9974 161.7 36.9974C161.7 36.9974 161.7 29.1244 161.7 27.4067C161.016 27.4067 159.643 27.4067 158.959 27.4067C158.959 28.0881 158.959 30.8316 158.959 30.8316Z" fill="white"/>
</svg>
